REM GENRE "Genre"
REM DATE 2013
REM DISCID 123456789
PERFORMER "Artist_01"
TITLE "Album"
FILE "00 - (HTOA).flac" WAVE
  TRACK 01 AUDIO
    INDEX 00 00:00:00
FILE "01 - Song01.flac" WAVE
    INDEX 01 00:00:00
    TITLE "Song01"

FILE "02 - Song02.flac" WAVE
  TRACK 02 AUDIO
    INDEX 01 00:00:00
    TITLE "Song02"

  TRACK 03 AUDIO
    INDEX 00 00:36:22
FILE "03 - Song03.flac" WAVE
    INDEX 01 00:00:00
    TITLE "Song03"

  TRACK 04 AUDIO
    INDEX 00 01:14:44
FILE "04 - Song04.flac" WAVE
    INDEX 01 00:00:00
    TITLE "Song04"
